<?xml version="1.0" encoding="UTF-8"?>
<svg version="1.1" xmlns="http://www.w3.org/2000/svg" width="600" height="600">
<path d="M0 0 C0.89460938 -0.00128906 1.78921875 -0.00257812 2.7109375 -0.00390625 C3.65195312 -0.00003906 4.59296875 0.00382812 5.5625 0.0078125 C6.97402344 0.00201172 6.97402344 0.00201172 8.4140625 -0.00390625 C9.75597656 -0.00197266 9.75597656 -0.00197266 11.125 0 C11.95128906 0.00112793 12.77757813 0.00225586 13.62890625 0.00341797 C15.5625 0.1328125 15.5625 0.1328125 16.5625 1.1328125 C16.63569621 3.82936104 16.65492537 6.49972708 16.625 9.1953125 C16.62048828 9.95392578 16.61597656 10.71253906 16.61132812 11.49414062 C16.5995068 13.37373121 16.58157078 15.25328149 16.5625 17.1328125 C15.5725 17.1328125 14.5825 17.1328125 13.5625 17.1328125 C13.5625 18.4528125 13.5625 19.7728125 13.5625 21.1328125 C10.89583333 19.79947917 8.22916667 18.46614583 5.5625 17.1328125 C5.5625 19.7728125 5.5625 22.4128125 5.5625 25.1328125 C1.94320748 26.94245876 -2.37633288 26.48664004 -6.37109375 26.65625 C-9.65972654 27.16734962 -10.38600468 27.66574096 -12.4375 30.1328125 C-13.0975 30.1328125 -13.7575 30.1328125 -14.4375 30.1328125 C-14.56125 29.4934375 -14.685 28.8540625 -14.8125 28.1953125 C-15.01875 27.5146875 -15.225 26.8340625 -15.4375 26.1328125 C-16.0975 25.8028125 -16.7575 25.4728125 -17.4375 25.1328125 C-17.49133848 22.67418849 -17.53109038 20.216737 -17.5625 17.7578125 C-17.57925781 17.05914062 -17.59601562 16.36046875 -17.61328125 15.640625 C-17.63094267 13.80383764 -17.54053261 11.96679287 -17.4375 10.1328125 C-15.4375 8.1328125 -15.4375 8.1328125 -13.0546875 7.9375 C-12.14976563 7.96070313 -11.24484375 7.98390625 -10.3125 8.0078125 C-8.94738281 8.03488281 -8.94738281 8.03488281 -7.5546875 8.0625 C-6.85601562 8.08570313 -6.15734375 8.10890625 -5.4375 8.1328125 C-5.458125 6.9984375 -5.47875 5.8640625 -5.5 4.6953125 C-5.4105993 -0.40052741 -4.62667375 0.00631566 0 0 Z " fill="#71B852" transform="translate(37.4375,124.8671875)"/>
<path d="M0 0 C0.89460938 -0.00128906 1.78921875 -0.00257812 2.7109375 -0.00390625 C3.65195312 -0.00003906 4.59296875 0.00382812 5.5625 0.0078125 C6.97402344 0.00201172 6.97402344 0.00201172 8.4140625 -0.00390625 C9.75597656 -0.00197266 9.75597656 -0.00197266 11.125 0 C11.95128906 0.00112793 12.77757813 0.00225586 13.62890625 0.00341797 C15.5625 0.1328125 15.5625 0.1328125 16.5625 1.1328125 C16.63569621 3.82936104 16.65492537 6.49972708 16.625 9.1953125 C16.62048828 9.95392578 16.61597656 10.71253906 16.61132812 11.49414062 C16.5995068 13.37373121 16.58157078 15.25328149 16.5625 17.1328125 C15.5725 17.1328125 14.5825 17.1328125 13.5625 17.1328125 C13.5625 18.4528125 13.5625 19.7728125 13.5625 21.1328125 C10.89583333 19.79947917 8.22916667 18.46614583 5.5625 17.1328125 C5.5625 19.7728125 5.5625 22.4128125 5.5625 25.1328125 C1.94320748 26.94245876 -2.37633288 26.48664004 -6.37109375 26.65625 C-9.65972654 27.16734962 -10.38600468 27.66574096 -12.4375 30.1328125 C-13.0975 30.1328125 -13.7575 30.1328125 -14.4375 30.1328125 C-14.56125 29.4934375 -14.685 28.8540625 -14.8125 28.1953125 C-15.01875 27.5146875 -15.225 26.8340625 -15.4375 26.1328125 C-16.0975 25.8028125 -16.7575 25.4728125 -17.4375 25.1328125 C-17.49133848 22.67418849 -17.53109038 20.216737 -17.5625 17.7578125 C-17.57925781 17.05914062 -17.59601562 16.36046875 -17.61328125 15.640625 C-17.63094267 13.80383764 -17.54053261 11.96679287 -17.4375 10.1328125 C-15.4375 8.1328125 -15.4375 8.1328125 -13.0546875 7.9375 C-12.14976563 7.96070312 -11.24484375 7.98390625 -10.3125 8.0078125 C-8.94738281 8.03488281 -8.94738281 8.03488281 -7.5546875 8.0625 C-6.85601562 8.08570312 -6.15734375 8.10890625 -5.4375 8.1328125 C-5.458125 6.9984375 -5.47875 5.8640625 -5.5 4.6953125 C-5.4105993 -0.40052741 -4.62667375 0.00631566 0 0 Z " fill="#71B852" transform="translate(37.4375,84.8671875)"/>
<path d="M0 0 C0.89460938 -0.00128906 1.78921875 -0.00257812 2.7109375 -0.00390625 C3.65195313 -0.00003906 4.59296875 0.00382812 5.5625 0.0078125 C6.97402344 0.00201172 6.97402344 0.00201172 8.4140625 -0.00390625 C9.75597656 -0.00197266 9.75597656 -0.00197266 11.125 0 C11.95128906 0.00112793 12.77757812 0.00225586 13.62890625 0.00341797 C15.5625 0.1328125 15.5625 0.1328125 16.5625 1.1328125 C16.63569621 3.82936104 16.65492537 6.49972708 16.625 9.1953125 C16.62048828 9.95392578 16.61597656 10.71253906 16.61132812 11.49414062 C16.5995068 13.37373121 16.58157078 15.25328149 16.5625 17.1328125 C15.5725 17.1328125 14.5825 17.1328125 13.5625 17.1328125 C13.5625 18.4528125 13.5625 19.7728125 13.5625 21.1328125 C10.89583333 19.79947917 8.22916667 18.46614583 5.5625 17.1328125 C5.5625 19.7728125 5.5625 22.4128125 5.5625 25.1328125 C1.94320748 26.94245876 -2.37633288 26.48664004 -6.37109375 26.65625 C-9.65972654 27.16734962 -10.38600468 27.66574096 -12.4375 30.1328125 C-13.0975 30.1328125 -13.7575 30.1328125 -14.4375 30.1328125 C-14.56125 29.4934375 -14.685 28.8540625 -14.8125 28.1953125 C-15.01875 27.5146875 -15.225 26.8340625 -15.4375 26.1328125 C-16.0975 25.8028125 -16.7575 25.4728125 -17.4375 25.1328125 C-17.49133848 22.67418849 -17.53109038 20.216737 -17.5625 17.7578125 C-17.57925781 17.05914062 -17.59601563 16.36046875 -17.61328125 15.640625 C-17.63094267 13.80383764 -17.54053261 11.96679287 -17.4375 10.1328125 C-15.4375 8.1328125 -15.4375 8.1328125 -13.0546875 7.9375 C-12.14976563 7.96070313 -11.24484375 7.98390625 -10.3125 8.0078125 C-8.94738281 8.03488281 -8.94738281 8.03488281 -7.5546875 8.0625 C-6.85601562 8.08570313 -6.15734375 8.10890625 -5.4375 8.1328125 C-5.458125 6.9984375 -5.47875 5.8640625 -5.5 4.6953125 C-5.4105993 -0.40052741 -4.62667375 0.00631566 0 0 Z " fill="#71B852" transform="translate(130.4375,47.8671875)"/>
<path d="M0 0 C0.89460938 -0.00128906 1.78921875 -0.00257812 2.7109375 -0.00390625 C3.65195312 -0.00003906 4.59296875 0.00382812 5.5625 0.0078125 C6.97402344 0.00201172 6.97402344 0.00201172 8.4140625 -0.00390625 C9.75597656 -0.00197266 9.75597656 -0.00197266 11.125 0 C11.95128906 0.00112793 12.77757813 0.00225586 13.62890625 0.00341797 C15.5625 0.1328125 15.5625 0.1328125 16.5625 1.1328125 C16.63569621 3.82936104 16.65492537 6.49972708 16.625 9.1953125 C16.62048828 9.95392578 16.61597656 10.71253906 16.61132812 11.49414062 C16.5995068 13.37373121 16.58157078 15.25328149 16.5625 17.1328125 C15.5725 17.1328125 14.5825 17.1328125 13.5625 17.1328125 C13.5625 18.4528125 13.5625 19.7728125 13.5625 21.1328125 C10.89583333 19.79947917 8.22916667 18.46614583 5.5625 17.1328125 C5.5625 19.7728125 5.5625 22.4128125 5.5625 25.1328125 C1.94320748 26.94245876 -2.37633288 26.48664004 -6.37109375 26.65625 C-9.65972654 27.16734962 -10.38600468 27.66574096 -12.4375 30.1328125 C-13.0975 30.1328125 -13.7575 30.1328125 -14.4375 30.1328125 C-14.56125 29.4934375 -14.685 28.8540625 -14.8125 28.1953125 C-15.01875 27.5146875 -15.225 26.8340625 -15.4375 26.1328125 C-16.0975 25.8028125 -16.7575 25.4728125 -17.4375 25.1328125 C-17.49133848 22.67418849 -17.53109038 20.216737 -17.5625 17.7578125 C-17.57925781 17.05914062 -17.59601562 16.36046875 -17.61328125 15.640625 C-17.63094267 13.80383764 -17.54053261 11.96679287 -17.4375 10.1328125 C-15.4375 8.1328125 -15.4375 8.1328125 -13.0546875 7.9375 C-12.14976563 7.96070313 -11.24484375 7.98390625 -10.3125 8.0078125 C-8.94738281 8.03488281 -8.94738281 8.03488281 -7.5546875 8.0625 C-6.85601562 8.08570313 -6.15734375 8.10890625 -5.4375 8.1328125 C-5.458125 6.9984375 -5.47875 5.8640625 -5.5 4.6953125 C-5.4105993 -0.40052741 -4.62667375 0.00631566 0 0 Z " fill="#71B852" transform="translate(36.4375,46.8671875)"/>
<path d="M0 0 C0.89460938 -0.00128906 1.78921875 -0.00257813 2.7109375 -0.00390625 C3.65195312 -0.00003906 4.59296875 0.00382813 5.5625 0.0078125 C6.97402344 0.00201172 6.97402344 0.00201172 8.4140625 -0.00390625 C9.75597656 -0.00197266 9.75597656 -0.00197266 11.125 0 C11.95128906 0.00112793 12.77757813 0.00225586 13.62890625 0.00341797 C15.5625 0.1328125 15.5625 0.1328125 16.5625 1.1328125 C16.63569621 3.82936104 16.65492537 6.49972708 16.625 9.1953125 C16.62048828 9.95392578 16.61597656 10.71253906 16.61132812 11.49414062 C16.5995068 13.37373121 16.58157078 15.25328149 16.5625 17.1328125 C15.5725 17.1328125 14.5825 17.1328125 13.5625 17.1328125 C13.5625 18.4528125 13.5625 19.7728125 13.5625 21.1328125 C10.89583333 19.79947917 8.22916667 18.46614583 5.5625 17.1328125 C5.5625 19.7728125 5.5625 22.4128125 5.5625 25.1328125 C1.94320748 26.94245876 -2.37633288 26.48664004 -6.37109375 26.65625 C-9.65972654 27.16734962 -10.38600468 27.66574096 -12.4375 30.1328125 C-13.0975 30.1328125 -13.7575 30.1328125 -14.4375 30.1328125 C-14.56125 29.4934375 -14.685 28.8540625 -14.8125 28.1953125 C-15.01875 27.5146875 -15.225 26.8340625 -15.4375 26.1328125 C-16.0975 25.8028125 -16.7575 25.4728125 -17.4375 25.1328125 C-17.49133848 22.67418849 -17.53109038 20.216737 -17.5625 17.7578125 C-17.57925781 17.05914063 -17.59601562 16.36046875 -17.61328125 15.640625 C-17.63094267 13.80383764 -17.54053261 11.96679287 -17.4375 10.1328125 C-15.4375 8.1328125 -15.4375 8.1328125 -13.0546875 7.9375 C-12.14976563 7.96070313 -11.24484375 7.98390625 -10.3125 8.0078125 C-8.94738281 8.03488281 -8.94738281 8.03488281 -7.5546875 8.0625 C-6.85601562 8.08570313 -6.15734375 8.10890625 -5.4375 8.1328125 C-5.458125 6.9984375 -5.47875 5.8640625 -5.5 4.6953125 C-5.4105993 -0.40052741 -4.62667375 0.00631566 0 0 Z " fill="#71B852" transform="translate(31.4375,4.8671875)"/>
<path d="M0 0 C1.32 0 2.64 0 4 0 C4.66 1.32 5.32 2.64 6 4 C6.66 2.68 7.32 1.36 8 0 C9.32 0 10.64 0 12 0 C12.66 1.65 13.32 3.3 14 5 C14.66 3.35 15.32 1.7 16 0 C20.95 0 25.9 0 31 0 C31 0.99 31 1.98 31 3 C29.68 3 28.36 3 27 3 C27 6.63 27 10.26 27 14 C25.68 14 24.36 14 23 14 C23 10.37 23 6.74 23 3 C21.68 3 20.36 3 19 3 C18.34 6.3 17.68 9.6 17 13 C15.35 13.33 13.7 13.66 12 14 C11.34 12.68 10.68 11.36 10 10 C9.34 11.32 8.68 12.64 8 14 C6.35 14 4.7 14 3 14 C2.49307308 12.4188708 1.99473557 10.83498617 1.5 9.25 C1.2215625 8.36828125 0.943125 7.4865625 0.65625 6.578125 C0 4 0 4 0 0 Z " fill="#000000" transform="translate(93,13)"/>
<path d="M0 0 C3.14581423 -0.02888514 6.29159469 -0.04675923 9.4375 -0.0625 C10.33533203 -0.07087891 11.23316406 -0.07925781 12.15820312 -0.08789062 C13.01220703 -0.09111328 13.86621094 -0.09433594 14.74609375 -0.09765625 C15.93223267 -0.10551147 15.93223267 -0.10551147 17.14233398 -0.11352539 C19 0 19 0 20 1 C20.07319621 3.69654854 20.09242537 6.36691458 20.0625 9.0625 C20.05798828 9.82111328 20.05347656 10.57972656 20.04882812 11.36132812 C20.0370068 13.24091871 20.01907078 15.12046899 20 17 C16.87709365 16.51421457 14.00419641 16.0013988 11 15 C10.67 12.69 10.34 10.38 10 8 C6.7 7.67 3.4 7.34 0 7 C0 4.69 0 2.38 0 0 Z " fill="#6ABB48" transform="translate(34,125)"/>
<path d="M0 0 C3.14581423 -0.02888514 6.29159469 -0.04675923 9.4375 -0.0625 C10.33533203 -0.07087891 11.23316406 -0.07925781 12.15820312 -0.08789062 C13.01220703 -0.09111328 13.86621094 -0.09433594 14.74609375 -0.09765625 C15.93223267 -0.10551147 15.93223267 -0.10551147 17.14233398 -0.11352539 C19 0 19 0 20 1 C20.07319621 3.69654854 20.09242537 6.36691458 20.0625 9.0625 C20.05798828 9.82111328 20.05347656 10.57972656 20.04882812 11.36132812 C20.0370068 13.24091871 20.01907078 15.12046899 20 17 C16.87709365 16.51421457 14.00419641 16.0013988 11 15 C10.67 12.69 10.34 10.38 10 8 C6.7 7.67 3.4 7.34 0 7 C0 4.69 0 2.38 0 0 Z " fill="#6ABB48" transform="translate(34,85)"/>
<path d="M0 0 C3.14581423 -0.02888514 6.29159469 -0.04675923 9.4375 -0.0625 C10.33533203 -0.07087891 11.23316406 -0.07925781 12.15820312 -0.08789062 C13.01220703 -0.09111328 13.86621094 -0.09433594 14.74609375 -0.09765625 C15.93223267 -0.10551147 15.93223267 -0.10551147 17.14233398 -0.11352539 C19 0 19 0 20 1 C20.07319621 3.69654854 20.09242537 6.36691458 20.0625 9.0625 C20.05798828 9.82111328 20.05347656 10.57972656 20.04882812 11.36132812 C20.0370068 13.24091871 20.01907078 15.12046899 20 17 C16.87709365 16.51421457 14.00419641 16.0013988 11 15 C10.67 12.69 10.34 10.38 10 8 C6.7 7.67 3.4 7.34 0 7 C0 4.69 0 2.38 0 0 Z " fill="#6ABB48" transform="translate(127,48)"/>
<path d="M0 0 C3.14581423 -0.02888514 6.29159469 -0.04675923 9.4375 -0.0625 C10.33533203 -0.07087891 11.23316406 -0.07925781 12.15820312 -0.08789062 C13.01220703 -0.09111328 13.86621094 -0.09433594 14.74609375 -0.09765625 C15.93223267 -0.10551147 15.93223267 -0.10551147 17.14233398 -0.11352539 C19 0 19 0 20 1 C20.07319621 3.69654854 20.09242537 6.36691458 20.0625 9.0625 C20.05798828 9.82111328 20.05347656 10.57972656 20.04882812 11.36132812 C20.0370068 13.24091871 20.01907078 15.12046899 20 17 C16.87709365 16.51421457 14.00419641 16.0013988 11 15 C10.67 12.69 10.34 10.38 10 8 C6.7 7.67 3.4 7.34 0 7 C0 4.69 0 2.38 0 0 Z " fill="#6ABB48" transform="translate(33,47)"/>
<path d="M0 0 C3.14581423 -0.02888514 6.29159469 -0.04675923 9.4375 -0.0625 C10.33533203 -0.07087891 11.23316406 -0.07925781 12.15820312 -0.08789062 C13.01220703 -0.09111328 13.86621094 -0.09433594 14.74609375 -0.09765625 C15.93223267 -0.10551147 15.93223267 -0.10551147 17.14233398 -0.11352539 C19 0 19 0 20 1 C20.07319621 3.69654854 20.09242537 6.36691458 20.0625 9.0625 C20.05798828 9.82111328 20.05347656 10.57972656 20.04882812 11.36132812 C20.0370068 13.24091871 20.01907078 15.12046899 20 17 C16.87709365 16.51421457 14.00419641 16.0013988 11 15 C10.67 12.69 10.34 10.38 10 8 C6.7 7.67 3.4 7.34 0 7 C0 4.69 0 2.38 0 0 Z " fill="#6ABB48" transform="translate(28,5)"/>
<path d="M0 0 C1.32 0 2.64 0 4 0 C4 1.32 4 2.64 4 4 C5.98 4 7.96 4 10 4 C11.49297212 6.98594424 11.11755228 9.70853624 11 13 C10.67 13.66 10.34 14.32 10 15 C6.7 15 3.4 15 0 15 C0 10.05 0 5.1 0 0 Z M5 7 C4.67 8.32 4.34 9.64 4 11 C4.99 11.33 5.98 11.66 7 12 C7 10.35 7 8.7 7 7 C6.34 7 5.68 7 5 7 Z " fill="#000000" transform="translate(64,12)"/>
<path d="M0 0 C7.71484375 -0.09765625 7.71484375 -0.09765625 10 0 C11 1 11 1 11.09765625 3.28515625 C11.08605469 4.20167969 11.07445312 5.11820313 11.0625 6.0625 C11.05347656 6.98160156 11.04445313 7.90070312 11.03515625 8.84765625 C11.02355469 9.55792969 11.01195312 10.26820312 11 11 C9.68 11 8.36 11 7 11 C7 8.36 7 5.72 7 3 C6.01 3.495 6.01 3.495 5 4 C4.59270772 6.32156597 4.25561323 8.6568787 4 11 C2.68 11 1.36 11 0 11 C0 7.37 0 3.74 0 0 Z " fill="#000000" transform="translate(51,16)"/>
<path d="M0 0 C2.97 0 5.94 0 9 0 C9 0.99 9 1.98 9 3 C7.35 3 5.7 3 4 3 C4 3.99 4 4.98 4 6 C5.65 6 7.3 6 9 6 C9 6.99 9 7.98 9 9 C7.35 9 5.7 9 4 9 C4 10.65 4 12.3 4 14 C2.68 14 1.36 14 0 14 C0 9.38 0 4.76 0 0 Z " fill="#000000" transform="translate(83,13)"/>
<path d="M0 0 C0.33 0 0.66 0 1 0 C1 2.31 1 4.62 1 7 C1.71027344 6.98839844 2.42054687 6.97679687 3.15234375 6.96484375 C4.07144531 6.95582031 4.99054687 6.94679687 5.9375 6.9375 C6.85402344 6.92589844 7.77054688 6.91429687 8.71484375 6.90234375 C11 7 11 7 12 8 C12.04092937 10.33297433 12.04241723 12.66705225 12 15 C13.65 15.33 15.3 15.66 17 16 C17.33 17.65 17.66 19.3 18 21 C16.65686601 20.35330586 15.32608822 19.68096422 14 19 C13.0925 18.608125 12.185 18.21625 11.25 17.8125 C10.5075 17.214375 9.765 16.61625 9 16 C8.6875 12.3125 8.6875 12.3125 9 9 C5.7 9 2.4 9 -1 9 C-1.09765625 2.84765625 -1.09765625 2.84765625 -1 1 C-0.67 0.67 -0.34 0.34 0 0 Z " fill="#579F37" transform="translate(33,125)"/>
<path d="M0 0 C0.33 0 0.66 0 1 0 C1 2.31 1 4.62 1 7 C1.71027344 6.98839844 2.42054687 6.97679688 3.15234375 6.96484375 C4.07144531 6.95582031 4.99054687 6.94679688 5.9375 6.9375 C6.85402344 6.92589844 7.77054688 6.91429688 8.71484375 6.90234375 C11 7 11 7 12 8 C12.04092937 10.33297433 12.04241723 12.66705225 12 15 C13.65 15.33 15.3 15.66 17 16 C17.33 17.65 17.66 19.3 18 21 C16.65686601 20.35330586 15.32608822 19.68096422 14 19 C13.0925 18.608125 12.185 18.21625 11.25 17.8125 C10.5075 17.214375 9.765 16.61625 9 16 C8.6875 12.3125 8.6875 12.3125 9 9 C5.7 9 2.4 9 -1 9 C-1.09765625 2.84765625 -1.09765625 2.84765625 -1 1 C-0.67 0.67 -0.34 0.34 0 0 Z " fill="#579F37" transform="translate(33,85)"/>
<path d="M0 0 C0.33 0 0.66 0 1 0 C1 2.31 1 4.62 1 7 C1.71027344 6.98839844 2.42054688 6.97679687 3.15234375 6.96484375 C4.07144531 6.95582031 4.99054688 6.94679688 5.9375 6.9375 C6.85402344 6.92589844 7.77054688 6.91429687 8.71484375 6.90234375 C11 7 11 7 12 8 C12.04092937 10.33297433 12.04241723 12.66705225 12 15 C13.65 15.33 15.3 15.66 17 16 C17.33 17.65 17.66 19.3 18 21 C16.65686601 20.35330586 15.32608822 19.68096422 14 19 C13.0925 18.608125 12.185 18.21625 11.25 17.8125 C10.5075 17.214375 9.765 16.61625 9 16 C8.6875 12.3125 8.6875 12.3125 9 9 C5.7 9 2.4 9 -1 9 C-1.09765625 2.84765625 -1.09765625 2.84765625 -1 1 C-0.67 0.67 -0.34 0.34 0 0 Z " fill="#579F37" transform="translate(126,48)"/>
<path d="M0 0 C0.33 0 0.66 0 1 0 C1 2.31 1 4.62 1 7 C1.71027344 6.98839844 2.42054687 6.97679687 3.15234375 6.96484375 C4.07144531 6.95582031 4.99054687 6.94679688 5.9375 6.9375 C6.85402344 6.92589844 7.77054688 6.91429687 8.71484375 6.90234375 C11 7 11 7 12 8 C12.04092937 10.33297433 12.04241723 12.66705225 12 15 C13.65 15.33 15.3 15.66 17 16 C17.33 17.65 17.66 19.3 18 21 C16.65686601 20.35330586 15.32608822 19.68096422 14 19 C13.0925 18.608125 12.185 18.21625 11.25 17.8125 C10.5075 17.214375 9.765 16.61625 9 16 C8.6875 12.3125 8.6875 12.3125 9 9 C5.7 9 2.4 9 -1 9 C-1.09765625 2.84765625 -1.09765625 2.84765625 -1 1 C-0.67 0.67 -0.34 0.34 0 0 Z " fill="#579F37" transform="translate(32,47)"/>
<path d="M0 0 C0.33 0 0.66 0 1 0 C1 2.31 1 4.62 1 7 C1.71027344 6.98839844 2.42054687 6.97679687 3.15234375 6.96484375 C4.07144531 6.95582031 4.99054687 6.94679688 5.9375 6.9375 C6.85402344 6.92589844 7.77054688 6.91429687 8.71484375 6.90234375 C11 7 11 7 12 8 C12.04092937 10.33297433 12.04241723 12.66705225 12 15 C13.65 15.33 15.3 15.66 17 16 C17.33 17.65 17.66 19.3 18 21 C16.65686601 20.35330586 15.32608822 19.68096422 14 19 C13.0925 18.608125 12.185 18.21625 11.25 17.8125 C10.5075 17.214375 9.765 16.61625 9 16 C8.6875 12.3125 8.6875 12.3125 9 9 C5.7 9 2.4 9 -1 9 C-1.09765625 2.84765625 -1.09765625 2.84765625 -1 1 C-0.67 0.67 -0.34 0.34 0 0 Z " fill="#579F37" transform="translate(27,5)"/>
<path d="M0 0 C0.99 0 1.98 0 3 0 C3 4.29 3 8.58 3 13 C3.99 13 4.98 13 6 13 C6 14.98 6 16.96 6 19 C5.01 19.33 4.02 19.66 3 20 C2.87625 19.360625 2.7525 18.72125 2.625 18.0625 C2.41875 17.381875 2.2125 16.70125 2 16 C1.34 15.67 0.68 15.34 0 15 C0 10.05 0 5.1 0 0 Z " fill="#56A037" transform="translate(20,135)"/>
<path d="M0 0 C0.99 0 1.98 0 3 0 C3 4.29 3 8.58 3 13 C3.99 13 4.98 13 6 13 C6 14.98 6 16.96 6 19 C5.01 19.33 4.02 19.66 3 20 C2.87625 19.360625 2.7525 18.72125 2.625 18.0625 C2.41875 17.381875 2.2125 16.70125 2 16 C1.34 15.67 0.68 15.34 0 15 C0 10.05 0 5.1 0 0 Z " fill="#56A037" transform="translate(20,95)"/>
<path d="M0 0 C0.99 0 1.98 0 3 0 C3 4.29 3 8.58 3 13 C3.99 13 4.98 13 6 13 C6 14.98 6 16.96 6 19 C5.01 19.33 4.02 19.66 3 20 C2.87625 19.360625 2.7525 18.72125 2.625 18.0625 C2.41875 17.381875 2.2125 16.70125 2 16 C1.34 15.67 0.68 15.34 0 15 C0 10.05 0 5.1 0 0 Z " fill="#56A037" transform="translate(113,58)"/>
<path d="M0 0 C0.99 0 1.98 0 3 0 C3 4.29 3 8.58 3 13 C3.99 13 4.98 13 6 13 C6 14.98 6 16.96 6 19 C5.01 19.33 4.02 19.66 3 20 C2.87625 19.360625 2.7525 18.72125 2.625 18.0625 C2.41875 17.381875 2.2125 16.70125 2 16 C1.34 15.67 0.68 15.34 0 15 C0 10.05 0 5.1 0 0 Z " fill="#56A037" transform="translate(19,57)"/>
<path d="M0 0 C0.99 0 1.98 0 3 0 C3 4.29 3 8.58 3 13 C3.99 13 4.98 13 6 13 C6 14.98 6 16.96 6 19 C5.01 19.33 4.02 19.66 3 20 C2.87625 19.360625 2.7525 18.72125 2.625 18.0625 C2.41875 17.381875 2.2125 16.70125 2 16 C1.34 15.67 0.68 15.34 0 15 C0 10.05 0 5.1 0 0 Z " fill="#56A037" transform="translate(14,15)"/>
<path d="M0 0 C3.96 0 7.92 0 12 0 C12 0.99 12 1.98 12 3 C8.04 3 4.08 3 0 3 C0 2.01 0 1.02 0 0 Z " fill="#ABD49E" transform="translate(38,129)"/>
<path d="M0 0 C3.96 0 7.92 0 12 0 C12 0.99 12 1.98 12 3 C8.04 3 4.08 3 0 3 C0 2.01 0 1.02 0 0 Z " fill="#ABD49E" transform="translate(38,89)"/>
<path d="M0 0 C3.96 0 7.92 0 12 0 C12 0.99 12 1.98 12 3 C8.04 3 4.08 3 0 3 C0 2.01 0 1.02 0 0 Z " fill="#ABD49E" transform="translate(131,52)"/>
<path d="M0 0 C3.96 0 7.92 0 12 0 C12 0.99 12 1.98 12 3 C8.04 3 4.08 3 0 3 C0 2.01 0 1.02 0 0 Z " fill="#ABD49E" transform="translate(37,51)"/>
<path d="M0 0 C3.96 0 7.92 0 12 0 C12 0.99 12 1.98 12 3 C8.04 3 4.08 3 0 3 C0 2.01 0 1.02 0 0 Z " fill="#ABD49E" transform="translate(32,9)"/>
<path d="M0 0 C1.98 0 3.96 0 6 0 C6 0.99 6 1.98 6 3 C4.02 3 2.04 3 0 3 C0 2.01 0 1.02 0 0 Z " fill="#000000" transform="translate(76,20)"/>
</svg>
