<svg xmlns="http://www.w3.org/2000/svg" width="432" height="149" viewBox="0 0 432 149" version="1.1"><path d="M 10 116 L 10 133 13.500 133 L 17 133 17 126.044 L 17 119.088 24.250 118.794 L 31.500 118.500 31.500 115.500 L 31.500 112.500 24.250 112.206 L 17 111.912 17 108.997 L 17 106.081 25.250 105.790 L 33.500 105.500 33.813 102.250 L 34.127 99 22.063 99 L 10 99 10 116 M 107.471 101.188 C 107.768 102.459, 109.378 109.350, 111.049 116.500 C 115.306 134.723, 114.509 133.155, 119.334 132.803 L 123.500 132.500 126.437 121.056 L 129.375 109.611 132.411 121.306 L 135.448 133 139.530 133 L 143.612 133 147.312 117.250 C 149.346 108.588, 151.009 100.938, 151.006 100.250 C 151.002 99.496, 149.650 99, 147.600 99 L 144.201 99 142.520 106.750 C 139.251 121.823, 139.585 121.362, 137.634 113.500 C 133.631 97.367, 134.509 98.855, 129.197 99.197 L 124.500 99.500 121.877 109.500 C 119.006 120.444, 119.327 120.585, 116.193 107 L 114.463 99.500 110.697 99.188 C 107.212 98.898, 106.971 99.048, 107.471 101.188 M 322 102.500 C 322 105.981, 322.024 106, 326.500 106 L 331 106 331 119.560 L 331 133.121 334.750 132.810 L 338.500 132.500 338.779 119.250 L 339.058 106 343.529 106 C 347.972 106, 348 105.978, 348 102.500 L 348 99 335 99 L 322 99 322 102.500 M 408 116 L 408 133 412 133 L 416 133 416 116 L 416 99 412 99 L 408 99 408 116 M 201.250 101.817 C 198.889 102.940, 198 104.033, 198 105.812 C 198 108.038, 197.691 108.211, 194.608 107.711 C 192.441 107.360, 190.454 107.694, 189.108 108.637 C 187.892 109.489, 187 109.666, 187 109.057 C 187 108.476, 185.425 108, 183.500 108 L 180 108 180 120.500 L 180 133 183.500 133 L 187 133 187 125.934 C 187 117.298, 188.058 115, 192.035 115 C 193.666 115, 195 114.564, 195 114.031 C 195 113.499, 195.675 113.322, 196.500 113.638 C 197.634 114.074, 198 115.910, 198 121.173 C 198 125, 198.460 128.992, 199.023 130.043 C 200.527 132.853, 203.719 134.221, 207.059 133.487 C 209.326 132.989, 210 132.286, 210 130.421 C 210 128.717, 209.442 128, 208.117 128 C 205.905 128, 205.033 125.419, 205.014 118.820 C 205.002 114.722, 205.280 114.099, 207.250 113.820 C 208.861 113.591, 209.590 112.719, 209.816 110.750 C 210.087 108.397, 209.771 108, 207.624 108 C 205.431 108, 205.076 107.513, 204.807 104.135 L 204.500 100.270 201.250 101.817 M 43.315 108.464 C 39.139 110.280, 37 114.633, 37 121.315 C 37 127.907, 39.371 131.432, 44.925 133.096 C 49.771 134.547, 55.366 132.897, 57.706 129.325 C 59.103 127.195, 59.134 126.698, 57.921 125.930 C 55.710 124.530, 52.275 124.842, 51.638 126.500 C 50.474 129.535, 44 127.670, 44 124.300 C 44 123.340, 46.126 123, 52.128 123 L 60.256 123 59.577 118.750 C 58.687 113.169, 56.606 110.151, 52.454 108.416 C 48.327 106.692, 47.377 106.697, 43.315 108.464 M 73.219 108.559 C 71.974 109.431, 71 109.649, 71 109.057 C 71 108.476, 69.425 108, 67.500 108 L 64 108 64 120.500 L 64 133 67.500 133 L 71 133 71.100 126.750 C 71.248 117.425, 71.996 115.557, 75.723 115.192 C 78.303 114.939, 78.985 114.343, 79.529 111.870 C 79.893 110.213, 80.035 108.720, 79.845 108.553 C 78.370 107.252, 75.081 107.255, 73.219 108.559 M 94 107.689 C 93.175 108.003, 91.713 108.947, 90.750 109.785 C 89.174 111.158, 89 111.145, 89 109.655 C 89 108.430, 88.090 108, 85.500 108 L 82 108 82 120.500 L 82 133 85.500 133 L 89 133 89.015 125.750 C 89.032 117.138, 90.521 113.500, 94.030 113.500 C 96.469 113.500, 96.504 113.621, 96.787 123.308 L 97.074 133.116 100.787 132.808 L 104.500 132.500 104.500 122.277 C 104.500 113.376, 104.241 111.801, 102.500 110.091 C 100.294 107.923, 96.324 106.802, 94 107.689 M 159.270 107.661 C 157.184 108.103, 153 112.347, 153 114.021 C 153 115.433, 159.010 115.692, 160.141 114.330 C 161.786 112.348, 166.226 112.596, 165.823 114.646 C 165.626 115.651, 163.552 116.858, 160.500 117.743 C 154.336 119.530, 153.302 120.350, 152.476 124.110 C 151.062 130.549, 157.555 135.264, 164.228 132.642 C 166.303 131.828, 168 131.575, 168 132.080 C 168 132.586, 169.471 133, 171.269 133 L 174.539 133 174.239 125.250 C 173.825 114.530, 173.239 111.526, 171.204 109.685 C 169.317 107.977, 162.907 106.890, 159.270 107.661 M 251.750 108.532 C 250.183 109.405, 249 109.620, 249 109.032 C 249 108.464, 247.425 108, 245.500 108 L 242 108 242 120.500 L 242 133 245.462 133 L 248.925 133 249.212 123.856 C 249.446 116.437, 249.830 114.504, 251.250 113.611 C 252.523 112.810, 253.477 112.810, 254.750 113.611 C 256.170 114.504, 256.554 116.437, 256.788 123.856 L 257.075 133 260.538 133 L 264 133 264 122.611 C 264 114.186, 263.669 111.823, 262.250 110.114 C 259.932 107.322, 255.200 106.609, 251.750 108.532 M 274.421 108.419 C 269.727 110.463, 267.158 118.160, 268.949 124.812 C 270.855 131.890, 277.588 135.078, 282.849 131.393 C 285.115 129.806, 285.139 129.827, 284.821 133.143 C 284.551 135.967, 284.063 136.550, 281.745 136.817 C 280.199 136.995, 278.304 136.447, 277.424 135.567 C 275.453 133.596, 269 133.441, 269 135.365 C 269 136.116, 269.886 137.856, 270.968 139.232 C 273.368 142.283, 279.487 143.485, 285.026 141.993 C 291.391 140.279, 292 138.558, 292 122.277 L 292 108 288.500 108 C 286.575 108, 285 108.423, 285 108.941 C 285 109.458, 283.762 109.236, 282.250 108.447 C 278.923 106.712, 278.347 106.709, 274.421 108.419 M 301.329 108.404 C 298.063 109.880, 296 112.631, 296 115.511 C 296 118.312, 301.317 122.709, 305.572 123.428 C 310.917 124.331, 312.843 125.557, 311.317 127.083 C 309.613 128.787, 304.845 128.509, 303.468 126.625 C 301.960 124.563, 297.128 124.504, 296.347 126.537 C 295.492 128.766, 298.725 131.849, 303.174 133.047 C 311.182 135.203, 319 131.246, 319 125.036 C 319 121.167, 316.461 118.939, 309.812 116.976 C 306.973 116.138, 304.485 114.956, 304.283 114.349 C 303.652 112.457, 307.169 111.881, 309.606 113.477 C 312.505 115.377, 318 115.506, 318 113.674 C 318 109.025, 307.381 105.668, 301.329 108.404 M 358.071 108.716 C 353.043 111.332, 350.670 115.093, 350.749 120.323 C 350.844 126.664, 353.138 130.438, 358.103 132.424 C 364.887 135.139, 371.459 132.768, 374.414 126.540 C 379.788 115.215, 368.741 103.167, 358.071 108.716 M 386.500 108.403 C 381.505 110.607, 379.664 113.492, 379.206 119.835 C 378.836 124.948, 379.090 125.954, 381.468 128.780 C 389.307 138.095, 404.007 132.759, 403.996 120.602 C 403.991 115.297, 400.900 110.274, 396.510 108.440 C 392.318 106.688, 390.400 106.681, 386.500 108.403 M 213.162 118.497 C 213.502 127.688, 213.825 129.269, 215.753 131.197 C 218.515 133.959, 224.092 134.132, 226.950 131.545 C 228.777 129.892, 229 129.870, 229 131.345 C 229 132.570, 229.910 133, 232.500 133 L 236 133 236 120.500 L 236 108 232.625 108 L 229.251 108 228.809 116.427 C 228.335 125.457, 227.033 128.291, 223.588 127.798 C 221.657 127.522, 221.478 126.766, 221.214 117.750 L 220.928 108 216.850 108 L 212.773 108 213.162 118.497 M 45.200 114.200 C 42.827 116.573, 43.878 118, 48 118 C 50.615 118, 52 117.550, 52 116.700 C 52 114.913, 49.932 113, 48 113 C 47.120 113, 45.860 113.540, 45.200 114.200 M 277.200 114.200 C 275.644 115.756, 275.644 124.244, 277.200 125.800 C 279.037 127.637, 282.808 127.228, 283.965 125.066 C 285.511 122.176, 285.214 116.357, 283.429 114.571 C 281.557 112.700, 278.861 112.539, 277.200 114.200 M 359.655 114.829 C 357.322 117.406, 357.476 124.216, 359.918 126.425 C 362.913 129.136, 366.205 128.082, 367.790 123.903 C 370.605 116.485, 364.410 109.575, 359.655 114.829 M 387.557 115.223 C 384.264 119.924, 386.715 128, 391.434 128 C 394.721 128, 396.500 125.366, 396.500 120.500 C 396.500 118.194, 395.882 115.563, 395.128 114.654 C 393.188 112.317, 389.392 112.602, 387.557 115.223 M 162.750 122.239 C 159.693 123.270, 158.960 126.664, 161.578 127.668 C 163.654 128.465, 166.262 125.780, 165.836 123.283 C 165.549 121.601, 165.096 121.447, 162.750 122.239" stroke="none" fill="#040404" fill-rule="evenodd"/><path d="M 253.571 21.571 C 252.335 22.808, 252 25.470, 252 34.071 L 252 45 267.066 45 C 288.519 45, 289.943 46.010, 289.978 61.250 L 290 71 293.775 71 C 297.144 71, 298.351 71.807, 305 78.500 C 309.097 82.625, 312.799 86, 313.225 86 C 313.651 86, 314 82.625, 314 78.500 L 314 71 318.300 71 C 320.665 71, 323.140 70.460, 323.800 69.800 C 324.663 68.937, 325 62.216, 325 45.871 C 325 26.542, 324.765 22.908, 323.429 21.571 C 322.063 20.206, 317.491 20, 288.500 20 C 259.509 20, 254.937 20.206, 253.571 21.571 M 212.200 53.200 C 211.337 54.063, 211 60.784, 211 77.129 C 211 102.730, 211.074 103, 218.071 103 L 222 103 222 110 C 222 113.850, 222.313 117, 222.695 117 C 224.196 117, 229 111.523, 229 109.813 C 229 108.724, 229.729 108, 230.826 108 C 231.830 108, 233.708 106.875, 235 105.500 L 237.349 103 259.103 103 C 277.546 103, 281.096 102.761, 282.429 101.429 C 283.765 100.092, 284 96.458, 284 77.129 C 284 60.784, 283.663 54.063, 282.800 53.200 C 281.081 51.481, 213.919 51.481, 212.200 53.200" stroke="none" fill="#68b741" fill-rule="evenodd"/></svg>