<svg xmlns="http://www.w3.org/2000/svg" width="725" height="149" viewBox="0 0 725 149" version="1.1"><path d="M 56.571 15.571 C 55.335 16.808, 55 19.470, 55 28.071 L 55 39 70.066 39 C 91.519 39, 92.943 40.010, 92.978 55.250 L 93 65 96.775 65 C 100.144 65, 101.351 65.807, 108 72.500 C 112.097 76.625, 115.799 80, 116.225 80 C 116.651 80, 117 76.625, 117 72.500 L 117 65 121.300 65 C 123.665 65, 126.140 64.460, 126.800 63.800 C 127.663 62.937, 128 56.216, 128 39.871 C 128 20.542, 127.765 16.908, 126.429 15.571 C 125.063 14.206, 120.491 14, 91.500 14 C 62.509 14, 57.937 14.206, 56.571 15.571 M 15.200 47.200 C 14.337 48.063, 14 54.784, 14 71.129 C 14 96.730, 14.074 97, 21.071 97 L 25 97 25 104 C 25 107.850, 25.350 111, 25.777 111 C 26.204 111, 29.680 107.850, 33.500 104 L 40.446 97 62.152 97 C 80.551 97, 84.097 96.761, 85.429 95.429 C 86.765 94.092, 87 90.458, 87 71.129 C 87 54.784, 86.663 48.063, 85.800 47.200 C 84.081 45.481, 16.919 45.481, 15.200 47.200" stroke="none" fill="#68b741" fill-rule="evenodd"/><path d="M 144.691 50.642 C 144.311 51.022, 144 61.608, 144 74.167 L 144 97 149 97 L 154 97 154 87.536 L 154 78.072 163.750 77.786 L 173.500 77.500 173.500 73.500 L 173.500 69.500 163.750 69.214 L 154 68.928 154 63.964 L 154 59 165.557 59 L 177.115 59 176.807 54.750 L 176.500 50.500 160.941 50.226 C 152.384 50.075, 145.071 50.262, 144.691 50.642 M 278.973 50.695 C 278.957 51.138, 281.302 61.757, 284.183 74.292 L 289.421 97.085 295.407 96.792 L 301.394 96.500 305.447 80.246 L 309.500 63.992 312.908 77.246 C 314.782 84.536, 316.715 91.963, 317.205 93.750 C 318.069 96.907, 318.249 97, 323.508 97 C 328.921 97, 328.923 96.998, 329.923 93.250 C 331.868 85.956, 340 51.776, 340 50.895 C 340 50.403, 337.964 50, 335.475 50 C 330.022 50, 330.282 49.485, 326.394 67.965 L 323.576 81.356 319.670 65.678 L 315.763 50 309.401 50 C 303.295 50, 303.010 50.111, 302.343 52.750 C 301.961 54.263, 300.230 61.125, 298.496 68 L 295.343 80.500 293.582 72.500 C 292.613 68.100, 291.074 61.350, 290.160 57.500 L 288.500 50.500 283.750 50.195 C 281.137 50.028, 278.988 50.253, 278.973 50.695 M 576.667 50.667 C 576.300 51.033, 576 53.058, 576 55.167 L 576 59 583 59 L 590 59 590 78 L 590 97 595 97 L 600 97 600 78 L 600 59 606.500 59 L 613 59 613 54.500 L 613 50 595.167 50 C 585.358 50, 577.033 50.300, 576.667 50.667 M 697 73.445 L 697 97 702.018 97 L 707.037 97 706.768 73.750 L 706.500 50.500 701.750 50.195 L 697 49.890 697 73.445 M 409.250 54.259 C 405.495 56.145, 405 56.792, 405 59.812 L 405 63.230 399.695 62.568 C 395.189 62.005, 393.985 62.224, 391.695 64.025 C 389.476 65.770, 389 65.867, 389 64.573 C 389 63.375, 387.926 63, 384.500 63 L 380 63 380 80 L 380 97 384.349 97 L 388.699 97 389.291 86.544 C 390.040 73.318, 390.867 71.585, 396.099 72.286 C 399.031 72.680, 400 72.461, 400 71.405 C 400 70.589, 401.005 70, 402.395 70 C 404.769 70, 404.792 70.102, 405.146 82.090 C 405.479 93.370, 405.661 94.307, 407.862 96.090 C 409.369 97.309, 411.779 98, 414.529 98 C 420.261 98, 422.003 97.216, 421.985 94.643 C 421.963 91.621, 420.885 90.500, 418 90.500 C 415.514 90.500, 415.498 90.441, 415.215 80.250 L 414.930 70 418.465 70 C 421.838 70, 422 69.840, 422 66.500 C 422 63.167, 421.833 63, 418.500 63 L 415 63 415 57.500 C 415 54.475, 414.663 52.028, 414.250 52.062 C 413.837 52.096, 411.587 53.085, 409.250 54.259 M 189.092 64.161 C 183.315 68.126, 181.600 71.309, 181.218 78.782 C 180.594 90.969, 186.474 97.995, 197.300 97.998 C 203.007 98, 207.081 96.100, 209.921 92.111 C 212.961 87.842, 212.562 87, 207.500 87 C 204.333 87, 202.407 87.593, 201 89 C 198.454 91.546, 195.546 91.546, 193 89 C 191.900 87.900, 191 86.100, 191 85 C 191 83.120, 191.667 83, 202.114 83 L 213.227 83 212.545 78.250 C 211.078 68.038, 206.374 62.936, 197.791 62.247 C 193.444 61.898, 191.892 62.239, 189.092 64.161 M 231 64 C 229.444 65.556, 229 65.667, 229 64.500 C 229 63.367, 227.778 63, 224 63 L 219 63 219 80 L 219 97 224 97 L 229 97 229 86.723 C 229 74.235, 230.274 71.458, 235.605 72.323 C 238.757 72.835, 239 72.659, 239.966 69.183 C 241.345 64.219, 241.270 63.317, 239.418 62.607 C 236.396 61.447, 232.989 62.011, 231 64 M 257.250 63.989 C 254.598 65.606, 254 65.697, 254 64.485 C 254 63.370, 252.756 63, 249 63 L 244 63 244 80 L 244 97 249 97 L 254 97 254 85.635 C 254 75.651, 254.252 73.949, 256.073 71.635 C 258.420 68.651, 261.118 68.261, 263.429 70.571 C 264.689 71.831, 265 74.606, 265 84.571 L 265 97 270.074 97 L 275.148 97 274.824 82.415 L 274.500 67.831 271.234 64.915 C 267.281 61.386, 262.084 61.042, 257.250 63.989 M 348.230 63.944 C 344.112 66.527, 341.953 70.725, 344.057 72.056 C 346.510 73.609, 350.603 73.097, 352.500 71 C 354.636 68.640, 358.251 68.392, 359.989 70.487 C 362.111 73.043, 360.490 74.439, 353.232 76.305 C 345.850 78.202, 343.843 79.653, 342.040 84.396 C 340.609 88.158, 342.217 93.239, 345.707 95.984 C 349.047 98.611, 355.466 98.623, 359.750 96.011 C 362.402 94.394, 363 94.303, 363 95.515 C 363 96.635, 364.257 97, 368.107 97 C 372.611 97, 373.119 96.793, 372.408 95.250 C 371.964 94.287, 371.353 87.772, 371.051 80.771 C 370.523 68.570, 370.386 67.929, 367.761 65.304 C 365.414 62.959, 364.052 62.518, 358.261 62.230 C 352.784 61.957, 350.879 62.283, 348.230 63.944 M 481 62.706 C 480.175 63.008, 478.488 64.176, 477.250 65.302 L 475 67.349 475 65.174 C 475 63.232, 474.467 63, 470 63 L 465 63 465 80 L 465 97 469.895 97 L 474.789 97 475.146 84.910 C 475.479 73.630, 475.661 72.693, 477.862 70.910 C 480.655 68.649, 481.982 68.535, 484.456 70.344 C 486.023 71.490, 486.367 73.562, 486.782 84.344 L 487.270 97 491.635 97 L 496 97 496 82.934 C 496 75.198, 495.537 68.003, 494.970 66.945 C 492.949 63.167, 485.730 60.977, 481 62.706 M 511.500 62.954 C 506.034 65.215, 503 71.336, 503 80.105 C 503 93.601, 512.859 101.042, 522.750 95.011 L 526 93.029 526 96.080 C 526 101.180, 524.426 103, 520.015 103 C 517.656 103, 515.781 102.430, 515.298 101.567 C 514.857 100.779, 512.134 99.821, 509.248 99.439 C 504.039 98.747, 504 98.762, 504 101.448 C 504 105.546, 508.605 109.564, 514.276 110.414 C 521.220 111.455, 527.775 110.176, 531.172 107.116 C 534.993 103.674, 536.164 96.157, 535.785 77.500 L 535.500 63.500 530.750 63.195 C 527.008 62.955, 526 63.217, 526 64.431 C 526 65.727, 525.485 65.657, 522.750 63.989 C 519.378 61.933, 514.952 61.526, 511.500 62.954 M 547.321 63.613 C 545.533 64.495, 543.407 66.730, 542.463 68.719 C 539.082 75.844, 543.672 81.664, 554.600 84.110 C 561.790 85.719, 563.902 87.208, 562.090 89.392 C 560.131 91.752, 553.416 91.509, 551.268 89 C 550.071 87.602, 548.318 87, 545.444 87 C 540.194 87, 539.663 87.613, 541.776 91.235 C 544.229 95.440, 549.798 98, 556.492 98 C 566.715 98, 572.455 93.626, 572.455 85.834 C 572.455 80.548, 570.018 78.482, 559.953 75.230 C 550.335 72.124, 548.616 69.710, 555.656 69.197 C 558.803 68.968, 560.139 69.348, 561.156 70.764 C 562.972 73.290, 571 72.724, 571 70.069 C 571 67.921, 567.399 64.474, 563.685 63.067 C 559.589 61.515, 550.994 61.802, 547.321 63.613 M 626.502 63.575 C 619.493 67.230, 617 71.755, 617 80.820 C 617 90.352, 622.710 96.881, 631.809 97.756 C 641.492 98.686, 648.221 94.133, 650.575 85.058 C 652.162 78.938, 650.624 71.357, 647.014 67.515 C 642.006 62.184, 632.627 60.382, 626.502 63.575 M 664.520 64.229 C 658.398 67.785, 655.850 73.014, 656.241 81.218 C 656.719 91.232, 661.694 96.880, 670.809 97.756 C 677.321 98.381, 682.209 96.664, 685.908 92.452 C 693.298 84.035, 691.869 71.402, 682.763 64.657 C 678.512 61.507, 669.567 61.298, 664.520 64.229 M 426.006 74.750 C 426.009 81.213, 426.474 88.167, 427.040 90.205 C 429.059 97.473, 436.889 100.194, 443.750 96.011 C 446.402 94.394, 447 94.303, 447 95.515 C 447 96.630, 448.244 97, 452 97 L 457 97 457 80 L 457 63 452 63 L 447 63 447 75 C 447 85.667, 446.778 87.222, 445 89 C 442.377 91.623, 439.489 91.536, 437.557 88.777 C 436.362 87.071, 436 83.819, 436 74.777 L 436 63 431 63 L 426 63 426.006 74.750 M 193 71 C 191.900 72.100, 191 73.900, 191 75 C 191 76.778, 191.667 77, 197 77 C 203.716 77, 204.406 76.058, 200.927 71.635 C 198.454 68.490, 195.728 68.272, 193 71 M 515.635 70.278 C 511.686 73.166, 511.686 85.835, 515.636 88.723 C 521.264 92.839, 527.008 85.924, 525.479 76.873 C 524.356 70.226, 519.842 67.202, 515.635 70.278 M 629.602 71.307 C 624.781 76.128, 625.731 86.883, 631.250 89.964 C 633.713 91.340, 634.284 91.341, 636.716 89.981 C 642.443 86.777, 643.433 76.342, 638.479 71.388 C 635.470 68.379, 632.556 68.353, 629.602 71.307 M 668.455 71.455 C 666.386 73.523, 666 74.866, 666 80 C 666 85.134, 666.386 86.477, 668.455 88.545 C 671.617 91.708, 675.028 91.663, 678.076 88.419 C 680.086 86.280, 680.500 84.813, 680.500 79.833 C 680.500 74.492, 680.189 73.560, 677.694 71.413 C 674.130 68.348, 671.550 68.359, 668.455 71.455 M 356.376 82.086 C 351.884 83.389, 350.429 85.451, 351.832 88.530 C 354.053 93.406, 361 89.974, 361 84 C 361 80.752, 360.991 80.748, 356.376 82.086" stroke="none" fill="#040404" fill-rule="evenodd"/></svg>