<svg xmlns="http://www.w3.org/2000/svg" width="256" height="256" viewBox="0 0 256 256" version="1.1"><path d="M 136 59.500 L 136 63 176.500 63 L 217 63 217 59.500 L 217 56 176.500 56 L 136 56 136 59.500 M 195 86.500 L 195 90 206 90 L 217 90 217 86.500 L 217 83 206 83 L 195 83 195 86.500 M 84.500 112.494 C 83.950 112.676, 82.271 113.096, 80.768 113.427 C 75.018 114.694, 68 123.236, 68 128.968 C 68 130.600, 68.649 131, 71.299 131 C 74.174 131, 74.764 130.541, 75.889 127.431 C 79.113 118.516, 92.151 117.589, 96.483 125.967 C 99.965 132.700, 96.907 140.087, 89.798 142.121 C 83.109 144.034, 83 144.234, 83 154.622 L 83 164 86.500 164 L 90 164 90 157.078 L 90 150.155 93.322 149.059 C 96.789 147.915, 101.908 143.158, 103.951 139.182 C 105.490 136.190, 105.488 126.806, 103.949 123.818 C 102.251 120.520, 97.927 116.040, 95 114.544 C 92.297 113.164, 86.119 111.957, 84.500 112.494 M 83 172 C 83 175.905, 83.083 176, 86.500 176 C 89.917 176, 90 175.905, 90 172 C 90 168.095, 89.917 168, 86.500 168 C 83.083 168, 83 168.095, 83 172" stroke="none" fill="#f8faf7" fill-rule="evenodd"/><path d="M 99.174 33.314 C 97.077 35.547, 97 36.412, 97 57.814 L 97 80 126.532 80 C 158.672 80, 160.512 80.268, 166.339 85.803 C 172.028 91.207, 172.447 92.948, 172.994 113.500 L 173.500 132.500 181.051 132.788 L 188.603 133.077 203.038 147.538 C 210.978 155.492, 217.817 162, 218.237 162 C 218.657 162, 219 155.250, 219 147 L 219 132 228.443 132 C 237.068 132, 238.022 131.807, 239.443 129.777 C 240.798 127.844, 241 121.560, 241 81.452 L 241 35.349 238.686 33.174 L 236.371 31 168.860 31 L 101.349 31 99.174 33.314 M 136 59.500 L 136 63 176.500 63 L 217 63 217 59.500 L 217 56 176.500 56 L 136 56 136 59.500 M 195 86.500 L 195 90 206 90 L 217 90 217 86.500 L 217 83 206 83 L 195 83 195 86.500 M 16.557 96.223 C 15.202 98.156, 15 104.440, 15 144.548 L 15 190.651 17.314 192.826 C 19.324 194.714, 20.773 195, 28.314 195 L 37 195 37 210.116 L 37 225.232 52.878 210.116 L 68.757 195 111.424 195 L 154.091 195 156.545 192.545 L 159 190.091 159 144.045 C 159 99.333, 158.942 97.942, 157 96 C 155.039 94.039, 153.667 94, 86.557 94 L 18.113 94 16.557 96.223 M 84.500 112.494 C 83.950 112.676, 82.271 113.096, 80.768 113.427 C 75.018 114.694, 68 123.236, 68 128.968 C 68 130.600, 68.649 131, 71.299 131 C 74.174 131, 74.764 130.541, 75.889 127.431 C 79.113 118.516, 92.151 117.589, 96.483 125.967 C 99.965 132.700, 96.907 140.087, 89.798 142.121 C 83.109 144.034, 83 144.234, 83 154.622 L 83 164 86.500 164 L 90 164 90 157.078 L 90 150.155 93.322 149.059 C 96.789 147.915, 101.908 143.158, 103.951 139.182 C 105.490 136.190, 105.488 126.806, 103.949 123.818 C 102.251 120.520, 97.927 116.040, 95 114.544 C 92.297 113.164, 86.119 111.957, 84.500 112.494 M 83 172 C 83 175.905, 83.083 176, 86.500 176 C 89.917 176, 90 175.905, 90 172 C 90 168.095, 89.917 168, 86.500 168 C 83.083 168, 83 168.095, 83 172" stroke="none" fill="#68b742" fill-rule="evenodd"/></svg>